<svg width="25" height="19" viewBox="0 0 25 19" fill="none" xmlns="http://www.w3.org/2000/svg">
<g clip-path="url(#clip0_40_409)">
<path d="M16.1154 13.6228C17.3003 13.4781 18.368 12.9029 19.0321 12.0308L26.0503 2.74977C26.5972 2.02614 26.4583 1.06871 25.7205 0.478675C24.9826 -0.111365 23.8585 -0.163318 23.0512 0.356214L12.7778 6.94684C11.7361 7.61481 11.1198 8.65758 11.1111 9.77086L16.1154 13.6228ZM15.2648 14.5654L10.23 10.6912C7.63454 10.7728 5.55555 12.6023 5.55555 14.8437C5.55555 14.9884 5.56423 15.1332 5.58159 15.2742C5.65972 15.9236 5.13888 16.625 4.37499 16.625H4.16666C3.39843 16.625 2.77777 17.1556 2.77777 17.8125C2.77777 18.4693 3.39843 19 4.16666 19H10.4167C13.1033 19 15.2778 17.1408 15.2778 14.8437C15.2778 14.7509 15.2734 14.6582 15.2691 14.5654H15.2648Z" fill="black"/>
</g>
<defs>
<clipPath id="clip0_40_409">
<rect width="25" height="19" fill="white"/>
</clipPath>
</defs>
</svg>
