<svg width="17" height="20" viewBox="0 0 17 20" fill="none" xmlns="http://www.w3.org/2000/svg">
<path d="M8.58905 1.46641L0.893392 11.491C0.0687392 12.5652 0.0687392 14.3055 0.893392 15.3797L3.53228 18.8172C3.92811 19.3328 4.46579 19.6207 5.02655 19.6207H8.49999H8.81006H15.8889C16.4727 19.6207 16.9444 19.0063 16.9444 18.2457C16.9444 17.4852 16.4727 16.8707 15.8889 16.8707H11.7953L16.1066 11.259C16.9312 10.1848 16.9312 8.44453 16.1066 7.37031L11.5776 1.46641C10.7529 0.392189 9.417 0.392189 8.59235 1.46641H8.58905ZM8.81006 16.875H8.49999H5.02325L2.38436 13.4375L6.49773 8.0793L11.03 13.9832L8.81006 16.875Z" fill="black"/>
</svg>
