<svg width="20" height="21" viewBox="0 0 20 21" fill="none" xmlns="http://www.w3.org/2000/svg">
<path d="M1.4375 0.385719C1.87153 -0.126976 2.57292 -0.126976 3.00694 0.385719L5.83333 3.72029L7.67708 1.54236C8.65278 0.389821 10.2361 0.389821 11.2118 1.54236L16.4687 7.75623C17.4444 8.90877 17.4444 10.7791 16.4687 11.9316L9.85764 19.7451C8.55555 21.2832 6.44444 21.2832 5.14236 19.7451L1.0625 14.9258C-0.239583 13.3877 -0.239583 10.8939 1.0625 9.35584L4.26042 5.5783L1.4375 2.23963C1.00347 1.72693 1.00347 0.894313 1.4375 0.381618V0.385719ZM7.54861 9.46248L5.83333 7.43631L2.63542 11.2138C2.48958 11.3861 2.39236 11.5953 2.34375 11.8127H13.4271L14.8958 10.0777C15.0035 9.95056 15.0035 9.74138 14.8958 9.61423L9.64236 3.40037C9.53472 3.27322 9.35764 3.27322 9.25 3.40037L7.40625 5.5783L9.12153 7.60447C9.55556 8.11716 9.55556 8.94978 9.12153 9.46248C8.6875 9.97517 7.98264 9.97517 7.54861 9.46248ZM17.7778 21.0002C16.5521 21.0002 15.5556 19.823 15.5556 18.3752C15.5556 17.3416 16.6875 15.1103 17.3333 13.9168C17.5417 13.5312 18.0104 13.5312 18.2188 13.9168C18.8681 15.1103 20 17.3416 20 18.3752C20 19.823 19.0035 21.0002 17.7778 21.0002Z" fill="black"/>
</svg>
