<svg width="19" height="19" viewBox="0 0 19 19" fill="none" xmlns="http://www.w3.org/2000/svg">
<path d="M10.7723 1.16562C10.573 0.65293 10.0641 0.3125 9.5 0.3125C8.93594 0.3125 8.42701 0.65293 8.22768 1.16562L2.45134 16.0625H1.35714C0.606473 16.0625 0 16.649 0 17.375C0 18.101 0.606473 18.6875 1.35714 18.6875H5.42857C6.17924 18.6875 6.78571 18.101 6.78571 17.375C6.78571 16.649 6.17924 16.0625 5.42857 16.0625H5.35223L6.11562 14.0938H12.8844L13.6478 16.0625H13.5714C12.8208 16.0625 12.2143 16.649 12.2143 17.375C12.2143 18.101 12.8208 18.6875 13.5714 18.6875H17.6429C18.3935 18.6875 19 18.101 19 17.375C19 16.649 18.3935 16.0625 17.6429 16.0625H16.5487L10.7723 1.16562ZM11.8665 11.4688H7.13348L9.5 5.36152L11.8665 11.4688Z" fill="black"/>
</svg>
