<svg width="18" height="18" viewBox="0 0 18 18" fill="none" xmlns="http://www.w3.org/2000/svg">
<path d="M13.1308 0.952734C13.6582 0.348047 14.4211 0 15.2226 0C16.7555 0 18 1.24453 18 2.77734C18 3.57891 17.6519 4.34531 17.0473 4.87266L9.76288 11.2148L9.40077 10.8527L7.15077 8.60273L6.78514 8.23711L13.1308 0.952734ZM5.9871 9.03164L6.35272 9.39727L8.60272 11.6473L8.96835 12.0129L8.29335 14.9449C8.15624 15.5461 7.69921 16.0242 7.10507 16.1895L0.8578 17.9402L4.21171 14.5863C4.30311 14.6109 4.40155 14.625 4.5035 14.625C5.12577 14.625 5.6285 14.1223 5.6285 13.5C5.6285 12.8777 5.12577 12.375 4.5035 12.375C3.88124 12.375 3.3785 12.8777 3.3785 13.5C3.3785 13.602 3.39257 13.6969 3.41718 13.7918L0.0597534 17.1422L1.81053 10.8984C1.97577 10.3043 2.45389 9.84727 3.05507 9.71016L5.9871 9.03516V9.03164Z" fill="black"/>
</svg>
