<svg width="20" height="20" viewBox="0 0 20 20" fill="none" xmlns="http://www.w3.org/2000/svg">
<path d="M3.75 1.25V5H8.75V1.25C8.75 0.558594 8.19141 0 7.5 0H5C4.30859 0 3.75 0.558594 3.75 1.25ZM3.75 6.25C1.67969 6.25 0 7.92969 0 10V18.125C0 19.1602 0.839844 20 1.875 20H10.625C11.6602 20 12.5 19.1602 12.5 18.125V10C12.5 7.92969 10.8203 6.25 8.75 6.25H3.75ZM6.25 16.25C4.52344 16.25 3.125 14.8516 3.125 13.125C3.125 11.3984 4.52344 10 6.25 10C7.97656 10 9.375 11.3984 9.375 13.125C9.375 14.8516 7.97656 16.25 6.25 16.25ZM15 1.875C15 1.82031 14.9609 1.75781 14.9141 1.73438L13.75 1.25L13.2656 0.0859375C13.2422 0.0390625 13.1797 0 13.125 0C13.0703 0 13.0078 0.0390625 12.9844 0.0859375L12.5 1.25L11.3359 1.73438C11.2891 1.75781 11.25 1.82031 11.25 1.875C11.25 1.92969 11.2891 1.99219 11.3359 2.01562L12.5 2.5L12.9844 3.66406C13.0078 3.71094 13.0703 3.75 13.125 3.75C13.1797 3.75 13.2422 3.71094 13.2656 3.66406L13.75 2.5L14.9141 2.01562C14.9609 1.99219 15 1.92969 15 1.875ZM17.9844 3.66406C18.0078 3.71094 18.0703 3.75 18.125 3.75C18.1797 3.75 18.2422 3.71094 18.2656 3.66406L18.75 2.5L19.9141 2.01562C19.9609 1.99219 20 1.92969 20 1.875C20 1.82031 19.9609 1.75781 19.9141 1.73438L18.75 1.25L18.2656 0.0859375C18.2422 0.0390625 18.1797 0 18.125 0C18.0703 0 18.0078 0.0390625 17.9844 0.0859375L17.5 1.25L16.3359 1.73438C16.2891 1.75781 16.25 1.82031 16.25 1.875C16.25 1.92969 16.2891 1.99219 16.3359 2.01562L17.5 2.5L17.9844 3.66406ZM18.2656 7.58594C18.2422 7.53906 18.1797 7.5 18.125 7.5C18.0703 7.5 18.0078 7.53906 17.9844 7.58594L17.5 8.75L16.3359 9.23438C16.2891 9.25781 16.25 9.32031 16.25 9.375C16.25 9.42969 16.2891 9.49219 16.3359 9.51562L17.5 10L17.9844 11.1641C18.0078 11.2109 18.0703 11.25 18.125 11.25C18.1797 11.25 18.2422 11.2109 18.2656 11.1641L18.75 10L19.9141 9.51562C19.9609 9.49219 20 9.42969 20 9.375C20 9.32031 19.9609 9.25781 19.9141 9.23438L18.75 8.75L18.2656 7.58594ZM17.5 5.625C17.5 5.57031 17.4609 5.50781 17.4141 5.48438L16.25 5L15.7656 3.83594C15.7422 3.78906 15.6797 3.75 15.625 3.75C15.5703 3.75 15.5078 3.78906 15.4844 3.83594L15 5L13.8359 5.48438C13.7891 5.50781 13.75 5.57031 13.75 5.625C13.75 5.67969 13.7891 5.74219 13.8359 5.76562L15 6.25L15.4844 7.41406C15.5078 7.46094 15.5703 7.5 15.625 7.5C15.6797 7.5 15.7422 7.46094 15.7656 7.41406L16.25 6.25L17.4141 5.76562C17.4609 5.74219 17.5 5.67969 17.5 5.625Z" fill="black"/>
</svg>
