<svg width="21" height="21" viewBox="0 0 21 21" fill="none" xmlns="http://www.w3.org/2000/svg">
<path d="M18 0.4375C19.6547 0.4375 21 1.72451 21 3.3125V17.6875C21 19.2732 19.6547 20.5625 18 20.5625H3C1.34297 20.5625 0 19.2732 0 17.6875V3.3125C0 1.72451 1.34297 0.4375 3 0.4375H18ZM18 2.59375H3C2.58562 2.59375 2.25 2.91539 2.25 3.3125V17.6875C2.25 18.0828 2.58562 18.4062 3 18.4062H18C18.4125 18.4062 18.75 18.0828 18.75 17.6875V3.3125C18.75 2.91539 18.4125 2.59375 18 2.59375Z" fill="black"/>
</svg>
